<svg width="20" height="20" viewBox="0 0 20 20" fill="none" xmlns="http://www.w3.org/2000/svg">
<path d="M15.0873 4.22611C15.2749 4.41386 15.5038 4.51003 15.7739 4.51461C16.044 4.51003 16.2729 4.41386 16.4606 4.22611C16.6483 4.03835 16.7421 3.81167 16.7421 3.54607C16.7421 3.27131 16.6483 3.04005 16.4606 2.85229C16.2775 2.66912 16.0509 2.57982 15.7808 2.5844C15.5107 2.57982 15.2818 2.67141 15.0941 2.85916C14.9064 3.04692 14.8126 3.27818 14.8126 3.55294C14.8126 3.81854 14.9041 4.04293 15.0873 4.22611ZM12.8968 2.63935C13.0891 2.83169 13.318 2.92785 13.5835 2.92785C13.8536 2.92327 14.0802 2.8294 14.2633 2.64622C14.4555 2.45389 14.5517 2.22492 14.5517 1.95932C14.5517 1.69371 14.4555 1.46474 14.2633 1.27241C14.0802 1.08923 13.8558 0.997647 13.5903 0.997647C13.3202 0.993067 13.0891 1.08694 12.8968 1.27928C12.7137 1.46245 12.6221 1.69142 12.6221 1.96618C12.6221 2.23179 12.7137 2.45618 12.8968 2.63935ZM10.3218 1.79446C10.5141 1.98679 10.743 2.08296 11.0085 2.08296C11.2786 2.07838 11.5052 1.9845 11.6883 1.80133C11.8805 1.60899 11.9767 1.38002 11.9767 1.11442C11.9767 0.848817 11.8805 0.619848 11.6883 0.427514C11.5052 0.244339 11.2809 0.152751 11.0153 0.152751C10.7453 0.148172 10.5141 0.242049 10.3218 0.434383C10.1387 0.617558 10.0471 0.846527 10.0471 1.12129C10.0471 1.38689 10.1387 1.61128 10.3218 1.79446ZM7.61635 1.79446C7.80862 1.98679 8.03751 2.08296 8.30302 2.08296C8.57311 2.07838 8.7997 1.9845 8.98281 1.80133C9.1705 1.61357 9.26435 1.38689 9.26435 1.12129C9.26892 0.851106 9.17508 0.619848 8.98281 0.427514C8.79513 0.23976 8.56624 0.148172 8.29615 0.152751C8.03064 0.152751 7.80404 0.246629 7.61635 0.434383C7.43324 0.617558 7.3394 0.844237 7.33482 1.11442C7.33482 1.38002 7.42867 1.6067 7.61635 1.79446ZM5.06883 2.62562C5.25652 2.81337 5.4854 2.90954 5.75549 2.91412C6.021 2.91412 6.2476 2.82024 6.43529 2.63248C6.62756 2.44015 6.72369 2.21118 6.72369 1.94558C6.71911 1.67539 6.62298 1.44643 6.43529 1.25867C6.2476 1.07092 6.021 0.977039 5.75549 0.977039C5.4854 0.97246 5.25423 1.06634 5.06196 1.25867C4.87427 1.44643 4.78272 1.67539 4.7873 1.94558C4.7873 2.21118 4.88114 2.43786 5.06883 2.62562ZM2.8509 4.19863C3.03859 4.38639 3.26519 4.48026 3.5307 4.48026C3.80079 4.47568 4.02968 4.37952 4.21737 4.19176C4.40505 4.00401 4.4989 3.77733 4.4989 3.51172C4.4989 3.24612 4.40505 3.01944 4.21737 2.83169C4.02968 2.64393 3.80308 2.55006 3.53757 2.55006C3.26748 2.54548 3.03859 2.63706 2.8509 2.82482C2.66321 3.01257 2.56937 3.24383 2.56937 3.51859C2.56937 3.7842 2.66321 4.01088 2.8509 4.19863ZM1.28531 6.41047C1.473 6.59822 1.70188 6.69439 1.97197 6.69897C2.23748 6.69897 2.46408 6.60509 2.65177 6.41734C2.84404 6.22501 2.94017 5.99604 2.94017 5.73043C2.93559 5.46025 2.83946 5.23128 2.65177 5.04353C2.46408 4.85577 2.23748 4.76189 1.97197 4.76189C1.70188 4.75732 1.47071 4.85119 1.27844 5.04353C1.09075 5.23128 0.999199 5.46025 1.00378 5.73043C1.00378 5.99604 1.09762 6.22272 1.28531 6.41047ZM0.454445 8.95889C0.646711 9.15123 0.8756 9.24739 1.14111 9.24739C1.40662 9.24739 1.63551 9.15123 1.82777 8.95889C2.01088 8.77572 2.10244 8.55133 2.10244 8.28573C2.10702 8.01554 2.01317 7.78428 1.82091 7.59195C1.63322 7.4042 1.40433 7.31261 1.13424 7.31719C0.868732 7.31719 0.644421 7.40877 0.461311 7.59195C0.269045 7.78428 0.172912 8.01325 0.172912 8.27886C0.172912 8.54446 0.266757 8.77114 0.454445 8.95889ZM0.454445 11.6653C0.646711 11.8576 0.8756 11.9538 1.14111 11.9538C1.40662 11.9538 1.63322 11.8599 1.82091 11.6722C2.0086 11.4844 2.10244 11.2577 2.10244 10.9921C2.10702 10.722 2.01317 10.4907 1.82091 10.2984C1.6378 10.1152 1.4112 10.0259 1.14111 10.0305C0.871022 10.0259 0.642133 10.1175 0.454445 10.3052C0.266757 10.493 0.175202 10.722 0.17978 10.9921C0.17978 11.2577 0.271334 11.4821 0.454445 11.6653ZM1.29904 14.2412C1.49131 14.4335 1.7202 14.5297 1.98571 14.5297C2.25122 14.5297 2.4801 14.4335 2.67237 14.2412C2.85548 14.058 2.94933 13.8314 2.9539 13.5612C2.9539 13.2956 2.85777 13.0666 2.6655 12.8743C2.48239 12.6911 2.25808 12.5995 1.99257 12.5995C1.71791 12.5995 1.48902 12.6911 1.30591 12.8743C1.11364 13.0666 1.0198 13.2979 1.02438 13.568C1.02438 13.8336 1.11593 14.058 1.29904 14.2412ZM2.88524 16.4324C3.07292 16.6202 3.30181 16.7164 3.5719 16.7209C3.83741 16.7209 4.06401 16.6271 4.2517 16.4393C4.43939 16.2516 4.53552 16.0226 4.5401 15.7524C4.53552 15.4822 4.43939 15.2532 4.2517 15.0655C4.06859 14.8823 3.84428 14.7907 3.57877 14.7907C3.3041 14.7907 3.07292 14.8846 2.88524 15.0724C2.69755 15.2601 2.60599 15.4891 2.61057 15.7593C2.61057 16.0249 2.70213 16.2493 2.88524 16.4324ZM5.08256 18.0261C5.26567 18.2092 5.49227 18.3031 5.76236 18.3077C6.02787 18.3077 6.25676 18.2115 6.44902 18.0192C6.63213 17.836 6.72598 17.6093 6.73056 17.3392C6.72598 17.069 6.63213 16.8423 6.44902 16.6591C6.25676 16.4668 6.02787 16.3706 5.76236 16.3706C5.49227 16.3752 5.26567 16.4691 5.08256 16.6522C4.8903 16.8446 4.79416 17.0736 4.79416 17.3392C4.79416 17.6048 4.8903 17.8337 5.08256 18.0261ZM7.65755 18.871C7.84066 19.0541 8.06726 19.148 8.33735 19.1526C8.60286 19.1526 8.82946 19.0587 9.01715 18.871C9.20484 18.6832 9.29868 18.4565 9.29868 18.1909C9.29868 17.9162 9.20713 17.6872 9.02401 17.504C8.83175 17.3117 8.60057 17.2178 8.33048 17.2224C8.06497 17.2224 7.83837 17.3163 7.65069 17.504C7.463 17.6918 7.36915 17.9184 7.36915 18.184C7.36915 18.4497 7.46529 18.6786 7.65755 18.871ZM10.363 18.871C10.5461 19.0541 10.7727 19.148 11.0428 19.1526C11.3083 19.1526 11.5372 19.0564 11.7295 18.8641C11.9126 18.6809 12.0041 18.4565 12.0041 18.1909C12.0041 17.9162 11.9126 17.6872 11.7295 17.504C11.5372 17.3117 11.306 17.2178 11.0359 17.2224C10.7704 17.2224 10.5461 17.314 10.363 17.4971C10.1707 17.6895 10.0746 17.9184 10.0746 18.184C10.0746 18.4497 10.1707 18.6786 10.363 18.871ZM12.9105 18.0398C13.0982 18.2276 13.3248 18.3214 13.5903 18.3214C13.8558 18.3214 14.0824 18.2276 14.2701 18.0398C14.4624 17.8475 14.5585 17.6185 14.5585 17.3529C14.5585 17.0873 14.4647 16.8606 14.277 16.6729C14.0893 16.4851 13.8627 16.3912 13.5972 16.3912C13.3271 16.3866 13.0959 16.4805 12.9037 16.6729C12.716 16.8606 12.6244 17.0896 12.629 17.3598C12.629 17.6254 12.7228 17.852 12.9105 18.0398ZM15.1216 16.4737C15.3093 16.6614 15.5382 16.7576 15.8083 16.7622C16.0783 16.7576 16.3072 16.6614 16.4949 16.4737C16.6826 16.2859 16.7765 16.0592 16.7765 15.7936C16.7719 15.5234 16.6757 15.2945 16.4881 15.1067C16.3004 14.919 16.0738 14.8251 15.8083 14.8251C15.5427 14.8251 15.3161 14.919 15.1285 15.1067C14.9408 15.2945 14.8446 15.5234 14.8401 15.7936C14.8401 16.0592 14.9339 16.2859 15.1216 16.4737ZM16.6941 14.2549C16.8817 14.4427 17.1083 14.5366 17.3739 14.5366C17.6394 14.5366 17.866 14.4427 18.0536 14.2549C18.2459 14.0626 18.342 13.8336 18.342 13.568C18.342 13.3024 18.2482 13.0758 18.0605 12.888C17.8728 12.7002 17.6462 12.6064 17.3807 12.6064C17.1106 12.6018 16.8795 12.6957 16.6872 12.888C16.4995 13.0758 16.4079 13.3047 16.4125 13.5749C16.4125 13.8405 16.5064 14.0672 16.6941 14.2549ZM17.5249 11.7065C17.708 11.8897 17.9346 11.9836 18.2047 11.9882C18.4748 11.9836 18.7014 11.8897 18.8845 11.7065C19.0722 11.5188 19.166 11.2921 19.166 11.0265C19.166 10.7517 19.0745 10.5228 18.8914 10.3396C18.6991 10.1472 18.4679 10.0534 18.1978 10.0579C17.9323 10.0579 17.7057 10.1518 17.5181 10.3396C17.3349 10.5228 17.2411 10.7494 17.2365 11.0196C17.2365 11.2852 17.3327 11.5142 17.5249 11.7065ZM17.5249 9.00011C17.708 9.18328 17.9346 9.27716 18.2047 9.28174C18.4748 9.27716 18.7014 9.18328 18.8845 9.00011C19.0768 8.80777 19.1729 8.57881 19.1729 8.3132C19.1683 8.04302 19.0745 7.81634 18.8914 7.63316C18.6991 7.44083 18.4702 7.34466 18.2047 7.34466C17.9392 7.34466 17.7103 7.44083 17.5181 7.63316C17.3349 7.81634 17.2411 8.04302 17.2365 8.3132C17.2365 8.57881 17.3327 8.80777 17.5249 9.00011ZM16.6803 6.42421C16.8634 6.60738 17.09 6.70126 17.3601 6.70584C17.6302 6.70126 17.8568 6.60738 18.0399 6.42421C18.2322 6.23187 18.3283 6.00291 18.3283 5.7373C18.3237 5.46712 18.2299 5.24044 18.0468 5.05726C17.8545 4.86493 17.6256 4.76876 17.3601 4.76876C17.0946 4.76876 16.8657 4.86493 16.6735 5.05726C16.4903 5.24044 16.3965 5.46712 16.3919 5.7373C16.3919 6.00291 16.4881 6.23187 16.6803 6.42421ZM9.88235 13.4719C10.07 13.6596 10.2829 13.7443 10.5209 13.726C10.759 13.7077 10.9787 13.5978 11.1801 13.3963L14.1465 10.4289C14.412 10.1633 14.5402 9.89309 14.5311 9.61832C14.5173 9.33898 14.3869 9.07567 14.1397 8.82838L11.1595 5.84721C10.9535 5.64113 10.7338 5.53123 10.5003 5.51749C10.2669 5.50375 10.0563 5.59076 9.86861 5.77852C9.68092 5.96627 9.59395 6.17692 9.60768 6.41047C9.62141 6.64402 9.72899 6.86154 9.93041 7.06303L10.9123 8.04531L11.8119 8.73908L10.1089 8.64292H5.86536C5.58154 8.64292 5.34578 8.73679 5.1581 8.92455C4.9521 9.13062 4.85139 9.36417 4.85596 9.62519C4.86054 9.88622 4.95896 10.1129 5.15123 10.3052C5.35265 10.5067 5.60443 10.6075 5.90656 10.6075H10.1089L11.7981 10.5113L10.878 11.2532L9.95788 12.1736C9.7473 12.3843 9.63515 12.6064 9.62141 12.8399C9.60768 13.0735 9.69466 13.2841 9.88235 13.4719Z"/>
</svg>
