<svg width="20" height="20" viewBox="0 0 20 20" fill="none" xmlns="http://www.w3.org/2000/svg">
<path d="M15.8913 4.99444C16.0801 5.18319 16.3102 5.27987 16.5819 5.28447C16.8535 5.27987 17.0836 5.18319 17.2724 4.99444C17.4611 4.8057 17.5555 4.57782 17.5555 4.31082C17.5555 4.0346 17.4611 3.80212 17.2724 3.61338C17.0882 3.42923 16.8604 3.33947 16.5888 3.34407C16.3172 3.33947 16.087 3.43154 15.8982 3.62028C15.7095 3.80903 15.6151 4.04151 15.6151 4.31772C15.6151 4.58473 15.7072 4.8103 15.8913 4.99444ZM13.6885 3.39931C13.8819 3.59266 14.112 3.68934 14.3791 3.68934C14.6507 3.68473 14.8785 3.59036 15.0627 3.40622C15.256 3.21287 15.3527 2.98269 15.3527 2.71568C15.3527 2.44868 15.256 2.2185 15.0627 2.02515C14.8785 1.84101 14.653 1.74894 14.386 1.74894C14.1143 1.74433 13.8819 1.8387 13.6885 2.03205C13.5044 2.2162 13.4123 2.44637 13.4123 2.72259C13.4123 2.98959 13.5044 3.21517 13.6885 3.39931ZM11.099 2.54995C11.2924 2.7433 11.5225 2.83998 11.7896 2.83998C12.0612 2.83538 12.289 2.741 12.4732 2.55686C12.6665 2.36351 12.7632 2.13333 12.7632 1.86633C12.7632 1.59932 12.6665 1.36914 12.4732 1.17579C12.289 0.99165 12.0635 0.899578 11.7965 0.899578C11.5248 0.894975 11.2924 0.989348 11.099 1.1827C10.9149 1.36684 10.8228 1.59702 10.8228 1.87323C10.8228 2.14024 10.9149 2.36581 11.099 2.54995ZM8.37831 2.54995C8.57166 2.7433 8.80184 2.83998 9.06885 2.83998C9.34046 2.83538 9.56833 2.741 9.75248 2.55686C9.94122 2.36811 10.0356 2.14024 10.0356 1.87323C10.0402 1.60162 9.94583 1.36914 9.75248 1.17579C9.56373 0.987046 9.33355 0.894975 9.06194 0.899578C8.79494 0.899578 8.56706 0.993951 8.37831 1.1827C8.19417 1.36684 8.0998 1.59472 8.09519 1.86633C8.09519 2.13333 8.18957 2.36121 8.37831 2.54995ZM5.81643 3.3855C6.00518 3.57425 6.23536 3.67092 6.50697 3.67552C6.77397 3.67552 7.00185 3.58115 7.19059 3.39241C7.38394 3.19906 7.48062 2.96888 7.48062 2.70187C7.47602 2.43026 7.37934 2.20008 7.19059 2.01134C7.00185 1.82259 6.77397 1.72822 6.50697 1.72822C6.23536 1.72362 6.00288 1.81799 5.80953 2.01134C5.62078 2.20008 5.52871 2.43026 5.53331 2.70187C5.53331 2.96888 5.62769 3.19675 5.81643 3.3855ZM3.58601 4.96682C3.77475 5.15557 4.00263 5.24994 4.26964 5.24994C4.54125 5.24534 4.77142 5.14866 4.96017 4.95992C5.14892 4.77117 5.24329 4.5433 5.24329 4.27629C5.24329 4.00928 5.14892 3.78141 4.96017 3.59266C4.77142 3.40391 4.54355 3.30954 4.27654 3.30954C4.00493 3.30494 3.77475 3.39701 3.58601 3.58576C3.39726 3.7745 3.30289 4.00698 3.30289 4.28319C3.30289 4.5502 3.39726 4.77808 3.58601 4.96682ZM2.01159 7.19034C2.20034 7.37909 2.43051 7.47576 2.70212 7.48037C2.96913 7.48037 3.19701 7.38599 3.38575 7.19725C3.5791 7.0039 3.67578 6.77372 3.67578 6.50671C3.67117 6.2351 3.5745 6.00493 3.38575 5.81618C3.19701 5.62743 2.96913 5.53306 2.70212 5.53306C2.43051 5.52846 2.19803 5.62283 2.00468 5.81618C1.81594 6.00493 1.72387 6.2351 1.72847 6.50671C1.72847 6.77372 1.82284 7.0016 2.01159 7.19034ZM1.17604 9.75222C1.36939 9.94557 1.59957 10.0422 1.86658 10.0422C2.13359 10.0422 2.36376 9.94557 2.55711 9.75222C2.74125 9.56808 2.83333 9.34251 2.83333 9.0755C2.83793 8.80389 2.74356 8.57141 2.55021 8.37806C2.36146 8.18932 2.13128 8.09724 1.85967 8.10185C1.59267 8.10185 1.36709 8.19392 1.18295 8.37806C0.9896 8.57141 0.892925 8.80159 0.892925 9.06859C0.892925 9.3356 0.987299 9.56348 1.17604 9.75222ZM1.17604 12.4729C1.36939 12.6663 1.59957 12.763 1.86658 12.763C2.13359 12.763 2.36146 12.6686 2.55021 12.4798C2.73895 12.2911 2.83333 12.0632 2.83333 11.7962C2.83793 11.5246 2.74356 11.2921 2.55021 11.0988C2.36606 10.9146 2.13819 10.8249 1.86658 10.8295C1.59497 10.8249 1.36479 10.9169 1.17604 11.1057C0.987299 11.2944 0.895228 11.5246 0.899832 11.7962C0.899832 12.0632 0.991902 12.2888 1.17604 12.4729ZM2.0254 15.0624C2.21875 15.2558 2.44893 15.3525 2.71593 15.3525C2.98294 15.3525 3.21312 15.2558 3.40647 15.0624C3.59061 14.8783 3.68498 14.6504 3.68959 14.3788C3.68959 14.1118 3.59291 13.8816 3.39956 13.6883C3.21542 13.5041 2.98985 13.4121 2.72284 13.4121C2.44663 13.4121 2.21645 13.5041 2.03231 13.6883C1.83896 13.8816 1.74458 14.1141 1.74919 14.3857C1.74919 14.6527 1.84126 14.8783 2.0254 15.0624ZM3.62053 17.2652C3.80928 17.454 4.03946 17.5507 4.31107 17.5553C4.57807 17.5553 4.80595 17.4609 4.9947 17.2721C5.18344 17.0834 5.28012 16.8532 5.28472 16.5816C5.28012 16.31 5.18344 16.0798 4.9947 15.8911C4.81056 15.7069 4.58498 15.6149 4.31797 15.6149C4.04176 15.6149 3.80928 15.7092 3.62053 15.898C3.43179 16.0867 3.33972 16.3169 3.34432 16.5885C3.34432 16.8555 3.43639 17.0811 3.62053 17.2652ZM5.83024 18.8673C6.01439 19.0514 6.24226 19.1458 6.51387 19.1504C6.78088 19.1504 7.01106 19.0537 7.20441 18.8604C7.38855 18.6762 7.48292 18.4483 7.48752 18.1767C7.48292 17.9051 7.38855 17.6773 7.20441 17.4931C7.01106 17.2998 6.78088 17.2031 6.51387 17.2031C6.24226 17.2077 6.01439 17.3021 5.83024 17.4862C5.63689 17.6796 5.54022 17.9097 5.54022 18.1767C5.54022 18.4437 5.63689 18.6739 5.83024 18.8673ZM8.41975 19.7166C8.60389 19.9008 8.83176 19.9951 9.10337 19.9997C9.37038 19.9997 9.59826 19.9054 9.787 19.7166C9.97575 19.5279 10.0701 19.3 10.0701 19.033C10.0701 18.7568 9.97805 18.5266 9.79391 18.3425C9.60056 18.1491 9.36808 18.0547 9.09647 18.0593C8.82946 18.0593 8.60159 18.1537 8.41284 18.3425C8.22409 18.5312 8.12972 18.7591 8.12972 19.0261C8.12972 19.2931 8.2264 19.5233 8.41975 19.7166ZM11.1404 19.7166C11.3246 19.9008 11.5525 19.9951 11.8241 19.9997C12.0911 19.9997 12.3213 19.9031 12.5146 19.7097C12.6988 19.5256 12.7908 19.3 12.7908 19.033C12.7908 18.7568 12.6988 18.5266 12.5146 18.3425C12.3213 18.1491 12.0888 18.0547 11.8172 18.0593C11.5502 18.0593 11.3246 18.1514 11.1404 18.3356C10.9471 18.5289 10.8504 18.7591 10.8504 19.0261C10.8504 19.2931 10.9471 19.5233 11.1404 19.7166ZM13.7023 18.8811C13.8911 19.0698 14.119 19.1642 14.386 19.1642C14.653 19.1642 14.8808 19.0698 15.0696 18.8811C15.2629 18.6877 15.3596 18.4576 15.3596 18.1905C15.3596 17.9235 15.2652 17.6957 15.0765 17.5069C14.8877 17.3182 14.6599 17.2238 14.3929 17.2238C14.1213 17.2192 13.8888 17.3136 13.6954 17.5069C13.5067 17.6957 13.4146 17.9258 13.4192 18.1975C13.4192 18.4645 13.5136 18.6923 13.7023 18.8811ZM15.9258 17.3067C16.1146 17.4954 16.3448 17.5921 16.6164 17.5967C16.888 17.5921 17.1182 17.4954 17.3069 17.3067C17.4957 17.1179 17.59 16.89 17.59 16.623C17.5854 16.3514 17.4888 16.1212 17.3 15.9325C17.1113 15.7438 16.8834 15.6494 16.6164 15.6494C16.3494 15.6494 16.1215 15.7438 15.9328 15.9325C15.744 16.1212 15.6473 16.3514 15.6427 16.623C15.6427 16.89 15.7371 17.1179 15.9258 17.3067ZM17.5072 15.0762C17.6959 15.265 17.9238 15.3594 18.1908 15.3594C18.4578 15.3594 18.6857 15.265 18.8744 15.0762C19.0678 14.8829 19.1645 14.6527 19.1645 14.3857C19.1645 14.1187 19.0701 13.8908 18.8813 13.7021C18.6926 13.5133 18.4647 13.419 18.1977 13.419C17.9261 13.4144 17.6936 13.5087 17.5003 13.7021C17.3115 13.8908 17.2195 14.121 17.2241 14.3926C17.2241 14.6596 17.3184 14.8875 17.5072 15.0762ZM18.3427 12.5144C18.5269 12.6985 18.7547 12.7929 19.0263 12.7975C19.298 12.7929 19.5258 12.6985 19.71 12.5144C19.8987 12.3256 19.9931 12.0977 19.9931 11.8307C19.9931 11.5545 19.901 11.3243 19.7169 11.1402C19.5235 10.9468 19.2911 10.8525 19.0194 10.8571C18.7524 10.8571 18.5246 10.9515 18.3358 11.1402C18.1517 11.3243 18.0573 11.5522 18.0527 11.8238C18.0527 12.0908 18.1494 12.321 18.3427 12.5144ZM18.3427 9.79366C18.5269 9.9778 18.7547 10.0722 19.0263 10.0768C19.298 10.0722 19.5258 9.9778 19.71 9.79366C19.9033 9.60031 20 9.37013 20 9.10312C19.9954 8.83151 19.901 8.60364 19.7169 8.41949C19.5235 8.22614 19.2934 8.12947 19.0263 8.12947C18.7593 8.12947 18.5292 8.22614 18.3358 8.41949C18.1517 8.60364 18.0573 8.83151 18.0527 9.10312C18.0527 9.37013 18.1494 9.60031 18.3427 9.79366ZM17.4934 7.20415C17.6775 7.3883 17.9054 7.48267 18.177 7.48727C18.4486 7.48267 18.6765 7.3883 18.8606 7.20415C19.054 7.0108 19.1506 6.78063 19.1506 6.51362C19.146 6.24201 19.0517 6.01413 18.8675 5.82999C18.6742 5.63664 18.444 5.53997 18.177 5.53997C17.91 5.53997 17.6798 5.63664 17.4865 5.82999C17.3023 6.01413 17.2079 6.24201 17.2033 6.51362C17.2033 6.78063 17.3 7.0108 17.4934 7.20415ZM10.6571 14.289C10.8458 14.4778 11.0599 14.5629 11.2993 14.5445C11.5387 14.5261 11.7596 14.4156 11.9622 14.2131L14.9453 11.23C15.2123 10.963 15.3412 10.6913 15.332 10.4151C15.3182 10.1343 15.187 9.86961 14.9384 9.62102L11.9415 6.6241C11.7343 6.41694 11.5133 6.30646 11.2786 6.29265C11.0438 6.27884 10.832 6.36631 10.6433 6.55505C10.4545 6.7438 10.3671 6.95556 10.3809 7.19034C10.3947 7.42512 10.5029 7.64379 10.7054 7.84635L11.6929 8.83381L12.5975 9.53125L10.885 9.43458H6.61745C6.33203 9.43458 6.09495 9.52895 5.9062 9.7177C5.69904 9.92486 5.59776 10.1596 5.60237 10.422C5.60697 10.6844 5.70595 10.9123 5.8993 11.1057C6.10185 11.3082 6.35505 11.4095 6.65888 11.4095H10.885L12.5837 11.3128L11.6583 12.0586L10.733 12.9839C10.5213 13.1957 10.4085 13.419 10.3947 13.6537C10.3809 13.8885 10.4683 14.1003 10.6571 14.289Z"/>
</svg>
