<svg width="20" height="20" viewBox="0 0 20 20" fill="none" xmlns="http://www.w3.org/2000/svg">
<path d="M4.10868 15.0051C3.91993 14.8163 3.68975 14.7196 3.41814 14.715C3.14653 14.7196 2.91636 14.8163 2.72761 15.0051C2.53886 15.1938 2.44449 15.4217 2.44449 15.6887C2.44449 15.9649 2.53886 16.1974 2.72761 16.3861C2.91175 16.5703 3.13963 16.66 3.41124 16.6554C3.68285 16.66 3.91303 16.568 4.10177 16.3792C4.29052 16.1905 4.38489 15.958 4.38489 15.6818C4.38489 15.4148 4.29282 15.1892 4.10868 15.0051ZM6.31148 16.6002C6.11813 16.4069 5.88795 16.3102 5.62095 16.3102C5.34934 16.3148 5.12146 16.4092 4.93732 16.5933C4.74397 16.7866 4.64729 17.0168 4.64729 17.2838C4.64729 17.5508 4.74397 17.781 4.93732 17.9744C5.12146 18.1585 5.34703 18.2506 5.61404 18.2506C5.88565 18.2552 6.11813 18.1608 6.31148 17.9675C6.49562 17.7833 6.58769 17.5531 6.58769 17.2769C6.58769 17.0099 6.49562 16.7843 6.31148 16.6002ZM8.90098 17.4496C8.70763 17.2562 8.47745 17.1595 8.21045 17.1595C7.93884 17.1641 7.71096 17.2585 7.52682 17.4427C7.33347 17.636 7.2368 17.8662 7.2368 18.1332C7.2368 18.4002 7.33347 18.6304 7.52682 18.8237C7.71096 19.0079 7.93654 19.0999 8.20354 19.0999C8.47515 19.1045 8.70763 19.0102 8.90098 18.8168C9.08513 18.6327 9.1772 18.4025 9.1772 18.1263C9.1772 17.8593 9.08513 17.6337 8.90098 17.4496ZM11.6217 17.4496C11.4283 17.2562 11.1982 17.1595 10.9312 17.1595C10.6595 17.1641 10.4317 17.2585 10.2475 17.4427C10.0588 17.6314 9.96441 17.8593 9.96441 18.1263C9.9598 18.3979 10.0542 18.6304 10.2475 18.8237C10.4363 19.0125 10.6664 19.1045 10.9381 19.0999C11.2051 19.0999 11.4329 19.0056 11.6217 18.8168C11.8058 18.6327 11.9002 18.4048 11.9048 18.1332C11.9048 17.8662 11.8104 17.6383 11.6217 17.4496ZM14.1836 16.614C13.9948 16.4253 13.7646 16.3286 13.493 16.324C13.226 16.324 12.9982 16.4184 12.8094 16.6071C12.6161 16.8005 12.5194 17.0306 12.5194 17.2976C12.524 17.5692 12.6207 17.7994 12.8094 17.9882C12.9982 18.1769 13.226 18.2713 13.493 18.2713C13.7646 18.2759 13.9971 18.1815 14.1905 17.9882C14.3792 17.7994 14.4713 17.5692 14.4667 17.2976C14.4667 17.0306 14.3723 16.8028 14.1836 16.614ZM16.414 15.0327C16.2252 14.8439 15.9974 14.7496 15.7304 14.7496C15.4588 14.7542 15.2286 14.8508 15.0398 15.0396C14.8511 15.2283 14.7567 15.4562 14.7567 15.7232C14.7567 15.9902 14.8511 16.2181 15.0398 16.4069C15.2286 16.5956 15.4565 16.69 15.7235 16.69C15.9951 16.6946 16.2252 16.6025 16.414 16.4138C16.6027 16.225 16.6971 15.9925 16.6971 15.7163C16.6971 15.4493 16.6027 15.2214 16.414 15.0327ZM17.9884 12.8092C17.7997 12.6204 17.5695 12.5237 17.2979 12.5191C17.0309 12.5191 16.803 12.6135 16.6142 12.8023C16.4209 12.9956 16.3242 13.2258 16.3242 13.4928C16.3288 13.7644 16.4255 13.9946 16.6142 14.1833C16.803 14.3721 17.0309 14.4665 17.2979 14.4665C17.5695 14.4711 17.802 14.3767 17.9953 14.1833C18.1841 13.9946 18.2761 13.7644 18.2715 13.4928C18.2715 13.2258 18.1772 12.9979 17.9884 12.8092ZM18.824 10.2473C18.6306 10.0539 18.4004 9.95726 18.1334 9.95726C17.8664 9.95726 17.6362 10.0539 17.4429 10.2473C17.2587 10.4314 17.1667 10.657 17.1667 10.924C17.1621 11.1956 17.2564 11.4281 17.4498 11.6215C17.6385 11.8102 17.8687 11.9023 18.1403 11.8977C18.4073 11.8977 18.6329 11.8056 18.8171 11.6215C19.0104 11.4281 19.1071 11.1979 19.1071 10.9309C19.1071 10.6639 19.0127 10.436 18.824 10.2473ZM18.824 7.52658C18.6306 7.33324 18.4004 7.23656 18.1334 7.23656C17.8664 7.23656 17.6385 7.33093 17.4498 7.51968C17.261 7.70843 17.1667 7.9363 17.1667 8.20331C17.1621 8.47492 17.2564 8.7074 17.4498 8.90075C17.6339 9.08489 17.8618 9.17466 18.1334 9.17006C18.405 9.17466 18.6352 9.08259 18.824 8.89384C19.0127 8.7051 19.1048 8.47492 19.1002 8.20331C19.1002 7.9363 19.0081 7.71073 18.824 7.52658ZM17.9746 4.93708C17.7812 4.74373 17.5511 4.64706 17.2841 4.64706C17.0171 4.64706 16.7869 4.74373 16.5935 4.93708C16.4094 5.12122 16.315 5.3491 16.3104 5.62071C16.3104 5.88772 16.4071 6.11789 16.6004 6.31124C16.7846 6.49539 17.0102 6.58746 17.2772 6.58746C17.5534 6.58746 17.7836 6.49539 17.9677 6.31124C18.161 6.11789 18.2554 5.88541 18.2508 5.6138C18.2508 5.3468 18.1587 5.12122 17.9746 4.93708ZM16.3795 2.73428C16.1907 2.54553 15.9605 2.44886 15.6889 2.44425C15.4219 2.44425 15.194 2.53863 15.0053 2.72737C14.8166 2.91612 14.7199 3.1463 14.7153 3.41791C14.7199 3.68952 14.8166 3.9197 15.0053 4.10844C15.1894 4.29258 15.415 4.38465 15.682 4.38465C15.9582 4.38465 16.1907 4.29028 16.3795 4.10154C16.5682 3.91279 16.6603 3.68261 16.6557 3.411C16.6557 3.144 16.5636 2.91842 16.3795 2.73428ZM14.1698 1.13224C13.9856 0.948098 13.7577 0.853725 13.4861 0.849121C13.2191 0.849121 12.9889 0.945795 12.7956 1.13914C12.6115 1.32329 12.5171 1.55116 12.5125 1.82277C12.5171 2.09438 12.6115 2.32226 12.7956 2.5064C12.9889 2.69975 13.2191 2.79643 13.4861 2.79643C13.7577 2.79182 13.9856 2.69745 14.1698 2.51331C14.3631 2.31996 14.4598 2.08978 14.4598 1.82277C14.4598 1.55577 14.3631 1.32559 14.1698 1.13224ZM11.5803 0.282883C11.3961 0.0987403 11.1682 0.00436705 10.8966 -0.000236511C10.6296 -0.000236511 10.4017 0.0941367 10.213 0.282883C10.0243 0.471629 9.92988 0.699504 9.92988 0.966511C9.92988 1.24272 10.0219 1.4729 10.2061 1.65705C10.3994 1.85039 10.6319 1.94477 10.9035 1.94016C11.1705 1.94016 11.3984 1.84579 11.5872 1.65705C11.7759 1.4683 11.8703 1.24042 11.8703 0.973417C11.8703 0.706411 11.7736 0.476232 11.5803 0.282883ZM8.85955 0.282883C8.67541 0.0987403 8.44753 0.00436705 8.17592 -0.000236511C7.90892 -0.000236511 7.67874 0.0964397 7.48539 0.289789C7.30125 0.473932 7.20917 0.699504 7.20917 0.966511C7.20917 1.24272 7.30125 1.4729 7.48539 1.65705C7.67874 1.85039 7.91122 1.94477 8.18283 1.94016C8.44983 1.94016 8.67541 1.84809 8.85955 1.66395C9.0529 1.4706 9.14958 1.24042 9.14958 0.973417C9.14958 0.706411 9.0529 0.476232 8.85955 0.282883ZM6.29767 1.11843C6.10892 0.929683 5.88105 0.83531 5.61404 0.83531C5.34703 0.83531 5.11916 0.929683 4.93041 1.11843C4.73706 1.31178 4.64039 1.54196 4.64039 1.80896C4.64039 2.07597 4.73476 2.30385 4.92351 2.49259C5.11225 2.68134 5.34013 2.77571 5.60714 2.77571C5.87875 2.78031 6.11123 2.68594 6.30457 2.49259C6.49332 2.30385 6.58539 2.07367 6.58079 1.80206C6.58079 1.53505 6.48642 1.30718 6.29767 1.11843ZM4.07415 2.69285C3.8854 2.5041 3.65523 2.40743 3.38362 2.40282C3.11201 2.40743 2.88183 2.5041 2.69308 2.69285C2.50434 2.88159 2.40996 3.10947 2.40996 3.37648C2.41457 3.64809 2.51124 3.87826 2.69999 4.06701C2.88873 4.25575 3.11661 4.35013 3.38362 4.35013C3.65062 4.35013 3.8785 4.25575 4.06725 4.06701C4.25599 3.87826 4.35267 3.64809 4.35727 3.37648C4.35727 3.10947 4.2629 2.88159 4.07415 2.69285ZM2.49283 4.92327C2.30408 4.73453 2.07621 4.64015 1.8092 4.64015C1.54219 4.64015 1.31432 4.73453 1.12557 4.92327C0.932221 5.11662 0.835546 5.3468 0.835546 5.6138C0.835546 5.88081 0.929919 6.10869 1.11866 6.29743C1.30741 6.48618 1.53529 6.58055 1.80229 6.58055C2.0739 6.58516 2.30638 6.49078 2.49973 6.29743C2.68848 6.10869 2.78055 5.87851 2.77595 5.6069C2.77595 5.33989 2.68157 5.11202 2.49283 4.92327ZM1.65728 7.48515C1.47314 7.30101 1.24526 7.20664 0.973653 7.20203C0.702043 7.20664 0.474167 7.30101 0.290024 7.48515C0.101278 7.6739 0.00690534 7.90177 0.00690534 8.16878C0.00690534 8.44499 0.0989766 8.67517 0.283119 8.85931C0.476468 9.05266 0.708948 9.14704 0.980558 9.14243C1.24756 9.14243 1.47544 9.04806 1.66419 8.85931C1.84833 8.67517 1.9427 8.4473 1.94731 8.17569C1.94731 7.90868 1.85063 7.6785 1.65728 7.48515ZM1.65728 10.2059C1.47314 10.0217 1.24526 9.92734 0.973653 9.92274C0.702043 9.92734 0.474167 10.0217 0.290024 10.2059C0.0966747 10.3992 0 10.6294 0 10.8964C0.00460356 11.168 0.0989766 11.3959 0.283119 11.58C0.476468 11.7734 0.706646 11.87 0.973653 11.87C1.24066 11.87 1.47084 11.7734 1.66419 11.58C1.84833 11.3959 1.9427 11.168 1.94731 10.8964C1.94731 10.6294 1.85063 10.3992 1.65728 10.2059ZM2.50664 12.7954C2.3225 12.6112 2.09462 12.5168 1.82301 12.5122C1.5514 12.5168 1.32352 12.6112 1.13938 12.7954C0.946032 12.9887 0.849357 13.2189 0.849357 13.4859C0.85396 13.7575 0.948333 13.9854 1.13248 14.1695C1.32583 14.3629 1.556 14.4595 1.82301 14.4595C2.09002 14.4595 2.32019 14.3629 2.51354 14.1695C2.69769 13.9854 2.79206 13.7575 2.79666 13.4859C2.79666 13.2189 2.69999 12.9887 2.50664 12.7954ZM9.34292 5.71048C9.15418 5.52173 8.94011 5.43657 8.70073 5.45498C8.46134 5.4734 8.24037 5.58388 8.03782 5.78644L5.05471 8.76955C4.7877 9.03655 4.6588 9.30816 4.66801 9.58438C4.68182 9.86519 4.81302 10.1299 5.06161 10.3785L8.05853 13.3754C8.26569 13.5826 8.48666 13.6931 8.72144 13.7069C8.95623 13.7207 9.16799 13.6332 9.35674 13.4445C9.54548 13.2557 9.63295 13.044 9.61914 12.8092C9.60533 12.5744 9.49714 12.3557 9.29459 12.1532L8.30712 11.1657L7.40252 10.4683L9.11505 10.5649H13.3825C13.668 10.5649 13.9051 10.4706 14.0938 10.2818C14.301 10.0747 14.4022 9.83987 14.3976 9.57747C14.393 9.31507 14.2941 9.08719 14.1007 8.89384C13.8981 8.69129 13.645 8.59001 13.3411 8.59001H9.11505L7.41633 8.68668L8.34165 7.9409L9.26697 7.01559C9.47873 6.80383 9.59152 6.58055 9.60533 6.34577C9.61914 6.11099 9.53167 5.89923 9.34292 5.71048Z"/>
</svg>
