<svg width="20" height="20" viewBox="0 0 20 20" fill="none" xmlns="http://www.w3.org/2000/svg">
<path d="M4.25856 4.22611C4.07088 4.41386 3.84199 4.51003 3.5719 4.51461C3.30181 4.51003 3.07292 4.41386 2.88524 4.22611C2.69755 4.03835 2.6037 3.81167 2.6037 3.54607C2.6037 3.27131 2.69755 3.04005 2.88524 2.85229C3.06835 2.66912 3.29495 2.57982 3.56503 2.5844C3.83512 2.57982 4.06401 2.67141 4.2517 2.85916C4.43939 3.04692 4.53323 3.27818 4.53323 3.55294C4.53323 3.81854 4.44168 4.04293 4.25856 4.22611ZM6.44902 2.63935C6.25676 2.83169 6.02787 2.92785 5.76236 2.92785C5.49227 2.92327 5.26567 2.8294 5.08256 2.64622C4.8903 2.45389 4.79416 2.22492 4.79416 1.95932C4.79416 1.69371 4.8903 1.46474 5.08256 1.27241C5.26567 1.08923 5.48998 0.997647 5.75549 0.997647C6.02558 0.993067 6.25676 1.08694 6.44902 1.27928C6.63213 1.46245 6.72369 1.69142 6.72369 1.96618C6.72369 2.23179 6.63213 2.45618 6.44902 2.63935ZM9.02402 1.79446C8.83175 1.98679 8.60286 2.08296 8.33735 2.08296C8.06726 2.07838 7.84066 1.9845 7.65755 1.80133C7.46529 1.60899 7.36915 1.38002 7.36915 1.11442C7.36915 0.848817 7.46529 0.619848 7.65755 0.427514C7.84066 0.244339 8.06497 0.152751 8.33048 0.152751C8.60057 0.148172 8.83175 0.242049 9.02402 0.434383C9.20713 0.617558 9.29868 0.846527 9.29868 1.12129C9.29868 1.38689 9.20713 1.61128 9.02402 1.79446ZM11.7295 1.79446C11.5372 1.98679 11.3083 2.08296 11.0428 2.08296C10.7727 2.07838 10.5461 1.9845 10.363 1.80133C10.1753 1.61357 10.0815 1.38689 10.0815 1.12129C10.0769 0.851106 10.1707 0.619848 10.363 0.427514C10.5507 0.23976 10.7796 0.148172 11.0497 0.152751C11.3152 0.152751 11.5418 0.246629 11.7295 0.434383C11.9126 0.617558 12.0064 0.844237 12.011 1.11442C12.011 1.38002 11.9172 1.6067 11.7295 1.79446ZM14.277 2.62562C14.0893 2.81337 13.8604 2.90954 13.5903 2.91412C13.3248 2.91412 13.0982 2.82024 12.9105 2.63248C12.7183 2.44015 12.6221 2.21118 12.6221 1.94558C12.6267 1.67539 12.7228 1.44643 12.9105 1.25867C13.0982 1.07092 13.3248 0.977039 13.5903 0.977039C13.8604 0.97246 14.0916 1.06634 14.2839 1.25867C14.4716 1.44643 14.5631 1.67539 14.5585 1.94558C14.5585 2.21118 14.4647 2.43786 14.277 2.62562ZM16.4949 4.19863C16.3072 4.38639 16.0806 4.48026 15.8151 4.48026C15.545 4.47568 15.3161 4.37952 15.1285 4.19176C14.9408 4.00401 14.8469 3.77733 14.8469 3.51172C14.8469 3.24612 14.9408 3.01944 15.1285 2.83169C15.3161 2.64393 15.5427 2.55006 15.8083 2.55006C16.0783 2.54548 16.3072 2.63706 16.4949 2.82482C16.6826 3.01257 16.7765 3.24383 16.7765 3.51859C16.7765 3.7842 16.6826 4.01088 16.4949 4.19863ZM18.0605 6.41047C17.8728 6.59822 17.6439 6.69439 17.3739 6.69897C17.1083 6.69897 16.8817 6.60509 16.6941 6.41734C16.5018 6.22501 16.4057 5.99604 16.4057 5.73043C16.4102 5.46025 16.5064 5.23128 16.6941 5.04353C16.8817 4.85577 17.1083 4.76189 17.3739 4.76189C17.6439 4.75732 17.8751 4.85119 18.0674 5.04353C18.2551 5.23128 18.3466 5.46025 18.342 5.73043C18.342 5.99604 18.2482 6.22272 18.0605 6.41047ZM18.8914 8.95889C18.6991 9.15123 18.4702 9.24739 18.2047 9.24739C17.9392 9.24739 17.7103 9.15123 17.5181 8.95889C17.3349 8.77572 17.2434 8.55133 17.2434 8.28573C17.2388 8.01554 17.3327 7.78428 17.5249 7.59195C17.7126 7.4042 17.9415 7.31261 18.2116 7.31719C18.4771 7.31719 18.7014 7.40877 18.8845 7.59195C19.0768 7.78428 19.1729 8.01325 19.1729 8.27886C19.1729 8.54446 19.0791 8.77114 18.8914 8.95889ZM18.8914 11.6653C18.6991 11.8576 18.4702 11.9538 18.2047 11.9538C17.9392 11.9538 17.7126 11.8599 17.5249 11.6722C17.3372 11.4844 17.2434 11.2577 17.2434 10.9921C17.2388 10.722 17.3327 10.4907 17.5249 10.2984C17.708 10.1152 17.9346 10.0259 18.2047 10.0305C18.4748 10.0259 18.7037 10.1175 18.8914 10.3052C19.0791 10.493 19.1706 10.722 19.166 10.9921C19.166 11.2577 19.0745 11.4821 18.8914 11.6653ZM18.0468 14.2412C17.8545 14.4335 17.6256 14.5297 17.3601 14.5297C17.0946 14.5297 16.8657 14.4335 16.6735 14.2412C16.4903 14.058 16.3965 13.8314 16.3919 13.5612C16.3919 13.2956 16.4881 13.0666 16.6803 12.8743C16.8634 12.6911 17.0877 12.5995 17.3533 12.5995C17.6279 12.5995 17.8568 12.6911 18.0399 12.8743C18.2322 13.0666 18.326 13.2979 18.3214 13.568C18.3214 13.8336 18.2299 14.058 18.0468 14.2412ZM16.4606 16.4324C16.2729 16.6202 16.044 16.7164 15.7739 16.7209C15.5084 16.7209 15.2818 16.6271 15.0941 16.4393C14.9064 16.2516 14.8103 16.0226 14.8057 15.7524C14.8103 15.4822 14.9064 15.2532 15.0941 15.0655C15.2772 14.8823 15.5015 14.7907 15.7671 14.7907C16.0417 14.7907 16.2729 14.8846 16.4606 15.0724C16.6483 15.2601 16.7398 15.4891 16.7353 15.7593C16.7353 16.0249 16.6437 16.2493 16.4606 16.4324ZM14.2633 18.0261C14.0802 18.2092 13.8536 18.3031 13.5835 18.3077C13.318 18.3077 13.0891 18.2115 12.8968 18.0192C12.7137 17.836 12.6198 17.6093 12.6153 17.3392C12.6198 17.069 12.7137 16.8423 12.8968 16.6591C13.0891 16.4668 13.318 16.3706 13.5835 16.3706C13.8536 16.3752 14.0802 16.4691 14.2633 16.6522C14.4555 16.8446 14.5517 17.0736 14.5517 17.3392C14.5517 17.6048 14.4555 17.8337 14.2633 18.0261ZM11.6883 18.871C11.5052 19.0541 11.2786 19.148 11.0085 19.1526C10.743 19.1526 10.5164 19.0587 10.3287 18.871C10.141 18.6832 10.0471 18.4565 10.0471 18.1909C10.0471 17.9162 10.1387 17.6872 10.3218 17.504C10.5141 17.3117 10.7453 17.2178 11.0153 17.2224C11.2809 17.2224 11.5075 17.3163 11.6951 17.504C11.8828 17.6918 11.9767 17.9184 11.9767 18.184C11.9767 18.4497 11.8805 18.6786 11.6883 18.871ZM8.98281 18.871C8.7997 19.0541 8.57311 19.148 8.30302 19.1526C8.03751 19.1526 7.80862 19.0564 7.61635 18.8641C7.43324 18.6809 7.34169 18.4565 7.34169 18.1909C7.34169 17.9162 7.43324 17.6872 7.61635 17.504C7.80862 17.3117 8.0398 17.2178 8.30988 17.2224C8.57539 17.2224 8.7997 17.314 8.98281 17.4971C9.17508 17.6895 9.27121 17.9184 9.27121 18.184C9.27121 18.4497 9.17508 18.6786 8.98281 18.871ZM6.43529 18.0398C6.2476 18.2276 6.021 18.3214 5.75549 18.3214C5.48998 18.3214 5.26338 18.2276 5.0757 18.0398C4.88343 17.8475 4.7873 17.6185 4.7873 17.3529C4.7873 17.0873 4.88114 16.8606 5.06883 16.6729C5.25652 16.4851 5.48312 16.3912 5.74863 16.3912C6.01871 16.3866 6.24989 16.4805 6.44216 16.6729C6.62985 16.8606 6.7214 17.0896 6.71682 17.3598C6.71682 17.6254 6.62298 17.852 6.43529 18.0398ZM4.22423 16.4737C4.03654 16.6614 3.80766 16.7576 3.53757 16.7622C3.26748 16.7576 3.03859 16.6614 2.8509 16.4737C2.66321 16.2859 2.56937 16.0592 2.56937 15.7936C2.57395 15.5234 2.67008 15.2945 2.85777 15.1067C3.04546 14.919 3.27206 14.8251 3.53757 14.8251C3.80308 14.8251 4.02968 14.919 4.21737 15.1067C4.40505 15.2945 4.50119 15.5234 4.50576 15.7936C4.50576 16.0592 4.41192 16.2859 4.22423 16.4737ZM2.65177 14.2549C2.46408 14.4427 2.23748 14.5366 1.97197 14.5366C1.70646 14.5366 1.47986 14.4427 1.29218 14.2549C1.09991 14.0626 1.00378 13.8336 1.00378 13.568C1.00378 13.3024 1.09762 13.0758 1.28531 12.888C1.473 12.7002 1.6996 12.6064 1.96511 12.6064C2.23519 12.6018 2.46637 12.6957 2.65864 12.888C2.84633 13.0758 2.93788 13.3047 2.9333 13.5749C2.9333 13.8405 2.83946 14.0672 2.65177 14.2549ZM1.82091 11.7065C1.6378 11.8897 1.4112 11.9836 1.14111 11.9882C0.871021 11.9836 0.644422 11.8897 0.461312 11.7065C0.273623 11.5188 0.179779 11.2921 0.179779 11.0265C0.179779 10.7517 0.271334 10.5228 0.454445 10.3396C0.646711 10.1472 0.877888 10.0534 1.14798 10.0579C1.41349 10.0579 1.64009 10.1518 1.82777 10.3396C2.01088 10.5228 2.10473 10.7494 2.10931 11.0196C2.10931 11.2852 2.01317 11.5142 1.82091 11.7065ZM1.82091 9.00011C1.6378 9.18328 1.4112 9.27716 1.14111 9.28174C0.871021 9.27716 0.644422 9.18328 0.461312 9.00011C0.269046 8.80777 0.172913 8.57881 0.172913 8.3132C0.17749 8.04302 0.271334 7.81634 0.454445 7.63316C0.646711 7.44083 0.875599 7.34466 1.14111 7.34466C1.40662 7.34466 1.63551 7.44083 1.82777 7.63316C2.01088 7.81634 2.10473 8.04302 2.10931 8.3132C2.10931 8.57881 2.01317 8.80777 1.82091 9.00011ZM2.6655 6.42421C2.48239 6.60738 2.25579 6.70126 1.98571 6.70584C1.71562 6.70126 1.48902 6.60738 1.30591 6.42421C1.11364 6.23187 1.01751 6.00291 1.01751 5.7373C1.02209 5.46712 1.11593 5.24044 1.29904 5.05726C1.49131 4.86493 1.7202 4.76876 1.98571 4.76876C2.25122 4.76876 2.4801 4.86493 2.67237 5.05726C2.85548 5.24044 2.94933 5.46712 2.9539 5.7373C2.9539 6.00291 2.85777 6.23187 2.6655 6.42421ZM9.46348 13.4719C9.27579 13.6596 9.06293 13.7443 8.82488 13.726C8.58684 13.7077 8.36711 13.5978 8.16568 13.3963L5.19929 10.4289C4.93378 10.1633 4.80561 9.89309 4.81476 9.61832C4.8285 9.33898 4.95896 9.07567 5.20616 8.82838L8.18628 5.84721C8.39228 5.64113 8.61202 5.53123 8.84548 5.51749C9.07895 5.50375 9.28953 5.59076 9.47721 5.77852C9.6649 5.96627 9.75188 6.17692 9.73815 6.41047C9.72441 6.64402 9.61684 6.86154 9.41541 7.06303L8.43348 8.04531L7.53395 8.73908L9.23688 8.64292H13.4805C13.7643 8.64292 14 8.73679 14.1877 8.92455C14.3937 9.13062 14.4944 9.36417 14.4899 9.62519C14.4853 9.88622 14.3869 10.1129 14.1946 10.3052C13.9932 10.5067 13.7414 10.6075 13.4393 10.6075H9.23688L7.54769 10.5113L8.46782 11.2532L9.38795 12.1736C9.59852 12.3843 9.71068 12.6064 9.72441 12.8399C9.73815 13.0735 9.65117 13.2841 9.46348 13.4719Z"/>
</svg>
