<svg width="38" height="38" viewBox="0 0 38 38" fill="none" xmlns="http://www.w3.org/2000/svg">
<g clip-path="url(#clip0_244_310)">
<path fill-rule="evenodd" clip-rule="evenodd" d="M36.0208 18.9999C36.0208 20.7336 37.467 24.1537 39.0147 27.8138C41.3118 33.2465 43.8326 39.208 42.18 40.9687C40.2941 42.978 34.01 40.571 28.243 38.362L28.243 38.362C24.4928 36.9256 20.9612 35.5729 19 35.5729C17.3073 35.5729 13.5768 37.0343 9.53048 38.6194C3.5294 40.9703 -3.16644 43.5934 -4.93999 42.1249C-7.12013 40.3199 -4.27156 34.2891 -1.5976 28.628L-1.59757 28.6279C0.231665 24.7552 1.97919 21.0555 1.97919 18.9999C1.97919 17.4431 1.21018 14.5263 0.358781 11.2969C-1.14516 5.59251 -2.9062 -1.0871 -1.14 -2.96881C0.701236 -4.93047 5.67073 -2.68267 10.4533 -0.519441C13.7549 0.973941 16.9674 2.42702 19 2.42702C20.906 2.42702 24.0166 1.37548 27.3044 0.264032C32.6019 -1.5268 38.3596 -3.47319 40.28 -1.42715C41.9761 0.379856 39.9908 6.03172 38.2011 11.1268C37.0721 14.3412 36.0208 17.3339 36.0208 18.9999ZM19 20.927C18.3442 20.927 17.8125 20.4094 17.8125 19.7708L17.8125 12.0624C17.8125 11.4239 18.3442 10.9062 19 10.9062C19.6558 10.9062 20.1875 11.4239 20.1875 12.0624L20.1875 19.7708C20.1875 20.4094 19.6558 20.927 19 20.927ZM18.1015 25.1655C17.6628 25.6401 17.7023 26.3712 18.1898 26.7984C18.6772 27.2256 19.4281 27.1871 19.8668 26.7124L19.8826 26.6953C20.3214 26.2207 20.2819 25.4896 19.7944 25.0624C19.3069 24.6352 18.5561 24.6737 18.1173 25.1483L18.1015 25.1655Z" fill="#D95781"/>
</g>
<defs>
<clipPath id="clip0_244_310">
<rect x="38" y="37.5" width="38" height="37" rx="2" transform="rotate(180 38 37.5)" fill="white"/>
</clipPath>
</defs>
</svg>
