<svg width="110" height="23" viewBox="0 0 110 23" fill="none" xmlns="http://www.w3.org/2000/svg">
<path d="M2.15371 22.7008C1.06571 22.7008 0.553711 22.1888 0.553711 21.1008C0.553711 20.0128 1.06571 19.5008 2.15371 19.5008H5.35371C6.44171 19.5008 6.95371 18.9888 6.95371 17.9008C6.95371 16.8128 7.46571 16.3008 8.55371 16.3008C9.64171 16.3008 10.1537 15.7888 10.1537 14.7008C10.1537 13.6128 10.6657 13.1008 11.7537 13.1008C12.8417 13.1008 13.3537 12.5888 13.3537 11.5008C13.3537 10.4128 13.8657 9.90078 14.9537 9.90078C16.0417 9.90078 16.5537 9.38878 16.5537 8.30078C16.5537 7.21278 17.0657 6.70078 18.1537 6.70078C19.2417 6.70078 19.7537 6.18878 19.7537 5.10078V1.90078C19.7537 0.812782 20.2657 0.300781 21.3537 0.300781H30.9537C32.0417 0.300781 32.5537 0.812782 32.5537 1.90078C32.5537 2.98878 32.0417 3.50078 30.9537 3.50078H27.7537C26.6657 3.50078 26.1537 4.01278 26.1537 5.10078C26.1537 6.18878 25.6417 6.70078 24.5537 6.70078C23.4657 6.70078 22.9537 7.21278 22.9537 8.30078C22.9537 9.38878 22.4417 9.90078 21.3537 9.90078C20.2657 9.90078 19.7537 10.4128 19.7537 11.5008C19.7537 12.5888 19.2417 13.1008 18.1537 13.1008C17.0657 13.1008 16.5537 13.6128 16.5537 14.7008C16.5537 15.7888 16.0417 16.3008 14.9537 16.3008C13.8657 16.3008 13.3537 16.8128 13.3537 17.9008C13.3537 18.9888 13.8657 19.5008 14.9537 19.5008H22.9537C24.0097 19.5008 24.5537 18.9888 24.5537 17.9008C24.5537 16.8128 25.0657 16.3008 26.1537 16.3008C27.2097 16.3008 27.7537 15.7888 27.7537 14.7008C27.7537 13.6128 28.2657 13.1008 29.3537 13.1008C30.4417 13.1008 30.9537 13.6128 30.9537 14.7008V21.1008C30.9537 22.1888 30.4417 22.7008 29.3537 22.7008H2.15371Z" fill="#D95781"/>
<path d="M34.1537 22.7008C33.0657 22.7008 32.5537 22.1888 32.5537 21.1008C32.5537 20.0128 33.0657 19.5008 34.1537 19.5008H37.3537C38.4417 19.5008 38.9537 18.9888 38.9537 17.9008C38.9537 16.8128 39.4657 16.3008 40.5537 16.3008C41.6417 16.3008 42.1537 15.7888 42.1537 14.7008C42.1537 13.6128 42.6657 13.1008 43.7537 13.1008C44.8417 13.1008 45.3537 12.5888 45.3537 11.5008C45.3537 10.4128 45.8657 9.90078 46.9537 9.90078C48.0417 9.90078 48.5537 9.38878 48.5537 8.30078C48.5537 7.21278 49.0657 6.70078 50.1537 6.70078C51.2417 6.70078 51.7537 6.18878 51.7537 5.10078V1.90078C51.7537 0.812782 52.2657 0.300781 53.3537 0.300781H59.7537C60.8417 0.300781 61.3537 0.812782 61.3537 1.90078C61.3537 2.98878 60.8417 3.50078 59.7537 3.50078C58.6657 3.50078 58.1537 4.01278 58.1537 5.10078V8.30078C58.1537 9.38878 58.6657 9.90078 59.7537 9.90078C60.8417 9.90078 61.3537 9.38878 61.3537 8.30078C61.3537 7.21278 61.8657 6.70078 62.9537 6.70078H66.1537C67.2417 6.70078 67.7537 6.18878 67.7537 5.10078C67.7537 4.01278 68.2657 3.50078 69.3537 3.50078H72.5537C73.6417 3.50078 74.1537 2.98878 74.1537 1.90078C74.1537 0.812782 74.6657 0.300781 75.7537 0.300781H85.3537C86.4417 0.300781 86.9537 0.812782 86.9537 1.90078C86.9537 2.98878 86.4417 3.50078 85.3537 3.50078H82.1537C81.0657 3.50078 80.5537 4.01278 80.5537 5.10078C80.5537 6.18878 80.0417 6.70078 78.9537 6.70078C77.8657 6.70078 77.3537 7.21278 77.3537 8.30078C77.3537 9.38878 76.8417 9.90078 75.7537 9.90078C74.6657 9.90078 74.1537 10.4128 74.1537 11.5008C74.1537 12.5888 73.6417 13.1008 72.5537 13.1008C71.4657 13.1008 70.9537 13.6128 70.9537 14.7008C70.9537 15.7888 70.4417 16.3008 69.3537 16.3008C68.2657 16.3008 67.7537 16.8128 67.7537 17.9008V21.1008C67.7537 22.1888 67.2417 22.7008 66.1537 22.7008H56.5537C55.4657 22.7008 54.9537 22.1888 54.9537 21.1008C54.9537 20.0128 55.4657 19.5008 56.5537 19.5008H59.7537C60.8417 19.5008 61.3537 18.9888 61.3537 17.9008C61.3537 16.8128 61.8657 16.3008 62.9537 16.3008C64.0417 16.3008 64.5537 15.7888 64.5537 14.7008C64.5537 13.6128 65.0657 13.1008 66.1537 13.1008C67.2417 13.1008 67.7537 12.5888 67.7537 11.5008C67.7537 10.4128 68.2657 9.90078 69.3537 9.90078C70.4417 9.90078 70.9537 9.38878 70.9537 8.30078C70.9537 7.21278 70.4417 6.70078 69.3537 6.70078C68.2657 6.70078 67.7537 7.21278 67.7537 8.30078C67.7537 9.38878 67.2417 9.90078 66.1537 9.90078H62.9537C61.8657 9.90078 61.3537 10.4128 61.3537 11.5008C61.3537 12.5888 60.8417 13.1008 59.7537 13.1008H56.5537C55.4657 13.1008 54.9537 12.5888 54.9537 11.5008C54.9537 10.4128 54.4417 9.90078 53.3537 9.90078C52.2657 9.90078 51.7537 10.4128 51.7537 11.5008C51.7537 12.5888 51.2417 13.1008 50.1537 13.1008C49.0657 13.1008 48.5537 13.6128 48.5537 14.7008C48.5537 15.7888 48.0417 16.3008 46.9537 16.3008C45.8657 16.3008 45.3537 16.8128 45.3537 17.9008V21.1008C45.3537 22.1888 44.8417 22.7008 43.7537 22.7008H34.1537Z" fill="#D95781"/>
<path d="M74.16 22.7008C73.072 22.7008 72.56 22.1888 72.56 21.1008C72.56 20.0128 73.072 19.5008 74.16 19.5008C75.248 19.5008 75.76 18.9888 75.76 17.9008C75.76 16.8128 76.272 16.3008 77.36 16.3008C78.448 16.3008 78.96 15.7888 78.96 14.7008C78.96 13.6128 79.472 13.1008 80.56 13.1008C81.648 13.1008 82.16 13.6128 82.16 14.7008V17.9008C82.16 18.9888 82.672 19.5008 83.76 19.5008H86.96C88.048 19.5008 88.56 18.9888 88.56 17.9008V5.10078C88.56 4.01278 89.072 3.50078 90.16 3.50078C91.248 3.50078 91.76 2.98878 91.76 1.90078C91.76 0.812782 92.272 0.300781 93.36 0.300781H108.4C109.488 0.300781 110 0.812782 110 1.90078C110 2.98878 109.488 3.50078 108.4 3.50078C107.312 3.50078 106.8 4.01278 106.8 5.10078C106.8 6.18878 106.288 6.70078 105.2 6.70078C104.112 6.70078 103.6 7.21278 103.6 8.30078C103.6 9.38878 103.088 9.90078 102 9.90078C100.912 9.90078 100.4 9.38878 100.4 8.30078V5.10078C100.4 4.01278 99.888 3.50078 98.8 3.50078H95.6C94.512 3.50078 94 4.01278 94 5.10078V17.9008C94 18.9888 93.488 19.5008 92.4 19.5008C91.312 19.5008 90.8 20.0128 90.8 21.1008C90.8 22.1888 90.288 22.7008 89.2 22.7008H74.16Z" fill="#D95781"/>
</svg>
