<svg width="141" height="30" viewBox="0 0 141 30" fill="none" xmlns="http://www.w3.org/2000/svg">
<path d="M15.5538 28.9984C15.3835 28.9984 15.2249 28.996 15.2249 28.996L15.2295 28.7651C15.2295 28.7651 15.5771 28.7721 15.7987 28.7651C16.6921 28.7418 17.3243 28.6181 18.1174 28.4408C24.3855 27.0434 28.764 21.5284 28.764 15.0265V6.90332H28.9949V15.0289C28.9949 21.638 24.5417 27.2464 18.1687 28.6671C17.364 28.8421 16.7225 28.9704 15.8057 28.996C15.7287 28.996 15.6424 28.9984 15.5538 28.9984Z" fill="#D95781" stroke="#D95781" stroke-width="0.34368"/>
<path d="M1.23094 23.0985H1V14.973C1 8.36615 5.52781 2.75548 12.0104 1.33474C12.8292 1.15977 13.4801 1.03146 14.4108 1.0058C14.6394 0.998797 14.9987 1.0058 14.9987 1.0058L14.994 1.23675C14.994 1.23675 14.6418 1.22976 14.4155 1.23675C13.5057 1.26008 12.8666 1.38606 12.0571 1.56103C5.68411 2.95845 1.23094 8.4758 1.23094 14.973V23.0985Z" fill="#D95781" stroke="#D95781" stroke-width="0.34368"/>
<path d="M15.2319 28.9986H15.001V28.7676H15.2319V28.9986ZM14.7327 26.276L14.7094 26.1617C13.3868 19.8325 7.71824 15.2367 1.23327 15.2367H1V15.0057H1.23327C3.63831 15.0057 5.90338 14.4155 7.96318 13.2537L8.06582 13.1954L8.18012 13.396L8.07748 13.4543C6.50989 14.3408 4.82333 14.8984 3.0458 15.1224C8.85894 15.8852 13.7157 20.2758 14.9357 26.1151L14.959 26.2294L14.7327 26.276ZM28.7617 15.2367C22.1765 15.1247 16.5219 10.4005 15.2599 3.9477C15.155 3.9407 15.0756 3.93837 14.9683 3.93837C14.3735 6.97116 12.8362 9.65868 10.5152 11.7093L10.4289 11.7863L10.2772 11.6137L10.3635 11.5367C12.6706 9.49771 14.1892 6.82186 14.7607 3.80073L14.7794 3.70508H14.875C15.064 3.70508 15.176 3.70508 15.3672 3.72141L15.4559 3.72841L15.4722 3.81706C16.6876 10.2442 22.3281 14.9474 28.8807 15.0034H28.9973V15.2344H28.7641L28.7617 15.2367Z" fill="#D95781" stroke="#D95781" stroke-width="0.34368"/>
<path d="M6.86213 28.9961C3.62898 28.9961 1 26.3646 1 23.1311C1 19.8977 3.62898 17.2685 6.86213 17.2685C10.0953 17.2685 12.7243 19.9 12.7243 23.1311C12.7243 23.9757 12.5493 24.7898 12.2041 25.5574C12.9879 25.8373 13.8393 26.003 14.7374 26.0449C14.8937 26.0519 15.05 26.0543 15.2133 26.0543C21.3437 26.0543 21.8219 21.9343 21.8219 20.6699C21.8219 17.3595 18.675 16.7366 15.0313 16.0181C12.3814 15.4955 9.65907 14.9566 7.84654 13.3096C6.49123 12.0754 5.83107 10.3864 5.83107 8.14448C5.83107 4.85973 8.1428 2.26086 11.8682 1.36035L11.9521 1.33936L12.1784 1.2927C12.5097 1.22271 12.8572 1.16439 13.2188 1.1154C13.3354 1.1014 13.4521 1.08974 13.5687 1.07807C13.7577 1.05941 14.0049 1.03841 14.2522 1.02908C14.2639 1.02908 14.2849 1.02675 14.3035 1.02675C14.3758 1.01975 14.4645 1.01742 14.5485 1.01508C16.5453 0.945095 18.2785 1.31603 19.7201 2.09989C20.7162 1.38368 21.8965 1.00342 23.1305 1.00342C26.3637 1.00342 28.9927 3.63495 28.9927 6.86604C28.9927 10.0971 26.3637 12.7287 23.1305 12.7287C19.8974 12.7287 17.2684 10.0971 17.2684 6.86604C17.2684 6.04952 17.4317 5.26099 17.7536 4.52846C17.0211 4.19485 16.179 4.00122 15.2529 3.95222C15.1083 3.94523 15.043 3.94289 14.896 3.94289H14.6371C10.9607 3.97555 8.76797 5.58293 8.76797 8.24246C8.76797 9.64221 9.2835 10.692 10.3472 11.4502C11.6582 12.3881 13.6294 12.7986 15.7148 13.2302C19.9464 14.1027 24.7238 15.0942 24.7238 20.9942C24.7238 25.1304 22.8529 26.6608 21.2247 27.531C20.7675 27.7596 20.2939 27.9649 19.8111 28.1422L19.7854 28.1516C18.4558 28.6088 16.8672 29.0287 14.9543 28.9914C13.0438 28.9541 11.5836 28.6485 10.1676 27.9719C9.19485 28.6392 8.05182 28.9914 6.86446 28.9914L6.86213 28.9961ZM10.1443 27.7013L10.2049 27.7316C11.6022 28.4129 13.0532 28.7185 14.945 28.7581C16.8392 28.7978 18.4254 28.3709 19.7224 27.9253C20.203 27.748 20.6672 27.5473 21.1151 27.3234C24.1033 25.7253 24.4858 23.1055 24.4858 20.9988C24.4858 15.2902 20.0094 14.364 15.6798 13.4705C13.5524 13.0296 11.5579 12.6167 10.2073 11.6485C9.07822 10.8413 8.53003 9.72853 8.53003 8.24479C8.53003 5.43829 10.8091 3.74226 14.6301 3.7096H14.8937C15.0477 3.7096 15.1153 3.7096 15.2599 3.7166C16.2653 3.76792 17.1704 3.98489 17.9566 4.36515L18.0615 4.41414L18.0125 4.52146C17.6743 5.25633 17.5017 6.04485 17.5017 6.86837C17.5017 9.97115 20.0257 12.493 23.1282 12.493C26.2307 12.493 28.7547 9.96882 28.7547 6.86837C28.7547 3.76792 26.2331 1.24371 23.1305 1.24371C21.9222 1.24371 20.7698 1.62164 19.7947 2.33318L19.7341 2.37751L19.6688 2.34251C18.3578 1.61464 16.7879 1.24371 14.994 1.24371C14.847 1.24371 14.6674 1.25071 14.5601 1.25071C14.4528 1.25071 14.3828 1.25771 14.2709 1.26237C14.0049 1.27637 13.7717 1.29503 13.5897 1.31136C13.4754 1.32303 13.3588 1.33469 13.2445 1.34869C12.8922 1.39302 12.5493 1.45367 12.2227 1.51899L11.9358 1.58198C8.31309 2.45449 6.06434 4.96704 6.06434 8.13981C6.06434 10.3118 6.69651 11.9448 8.0005 13.1299C9.76171 14.7326 12.4537 15.2645 15.0547 15.7801C18.661 16.4917 22.0505 17.1612 22.0505 20.6699C22.0505 21.988 21.556 26.2922 15.2086 26.2922C15.043 26.2922 14.8844 26.2899 14.7234 26.2829C13.7553 26.2362 12.8362 26.0519 11.9988 25.7347L11.8798 25.6903L11.9358 25.5737C12.302 24.8062 12.4887 23.985 12.4887 23.1335C12.4887 20.0307 9.96465 17.5088 6.86213 17.5088C3.75961 17.5088 1.2356 20.0307 1.2356 23.1311C1.2356 26.2316 3.75961 28.7581 6.86213 28.7581C8.02616 28.7581 9.1412 28.4059 10.0883 27.741L10.1443 27.7013Z" fill="#D95781" stroke="#D95781" stroke-width="0.34368"/>
<path d="M10.1443 27.7013L10.2049 27.7316C11.6022 28.4128 13.0532 28.7184 14.945 28.7581C16.8392 28.7977 18.4254 28.3708 19.7224 27.9252C20.203 27.7479 20.6672 27.5473 21.1151 27.3233C24.1033 25.7253 24.4858 23.1054 24.4858 20.9988C24.4858 15.2901 20.0093 14.364 15.6798 13.4705C13.5524 13.0295 11.5579 12.6166 10.2072 11.6485C9.07821 10.8413 8.53002 9.72847 8.53002 8.24474C8.53002 5.43824 10.8091 3.74221 14.6301 3.70955H14.8937C15.0476 3.70955 15.1153 3.70955 15.2599 3.71654C16.2653 3.76787 17.1704 3.98483 17.9565 4.3651L18.0615 4.41409L18.0125 4.5214C17.6743 5.25627 17.5017 6.0448 17.5017 6.86831C17.5017 9.97109 20.0257 12.493 23.1282 12.493C26.2307 12.493 28.7547 9.96876 28.7547 6.86831C28.7547 3.76787 26.233 1.24365 23.1305 1.24365C21.9222 1.24365 20.7698 1.62158 19.7947 2.33312L19.7341 2.37745L19.6688 2.34246C18.3578 1.61459 16.7879 1.24365 14.994 1.24365C14.847 1.24365 14.6674 1.25065 14.5601 1.25065C14.4528 1.25065 14.3828 1.25765 14.2708 1.26232C14.0049 1.27631 13.7716 1.29498 13.5897 1.31131C13.4754 1.32297 13.3588 1.33464 13.2444 1.34863C12.8922 1.39296 12.5493 1.45361 12.2227 1.51894L11.9358 1.58193C8.31308 2.45444 6.06433 4.96699 6.06433 8.13975C6.06433 10.3117 6.6965 11.9447 8.00049 13.1299C9.76169 14.7326 12.4537 15.2645 15.0546 15.7801C18.661 16.4916 22.0505 17.1611 22.0505 20.6699C22.0505 21.9879 21.5559 26.2922 15.2086 26.2922C15.043 26.2922 14.8844 26.2898 14.7234 26.2829C13.7553 26.2362 12.8362 26.0519 11.9988 25.7346L11.8798 25.6903L11.9358 25.5736C12.302 24.8061 12.4886 23.9849 12.4886 23.1334C12.4886 20.0306 9.96464 17.5087 6.86212 17.5087C3.7596 17.5087 1.2356 20.0306 1.2356 23.1311C1.2356 26.2315 3.7596 28.7581 6.86212 28.7581C8.02615 28.7581 9.14119 28.4058 10.0883 27.7409L10.1443 27.7013Z" fill="#D95781"/>
<path d="M32.5973 26.2005C31.5093 26.2005 30.9973 25.6885 30.9973 24.6005C30.9973 23.5125 31.5093 23.0005 32.5973 23.0005H35.7973C36.8853 23.0005 37.3973 22.4885 37.3973 21.4005C37.3973 20.3125 37.9093 19.8005 38.9973 19.8005C40.0853 19.8005 40.5973 19.2885 40.5973 18.2005C40.5973 17.1125 41.1093 16.6005 42.1973 16.6005C43.2853 16.6005 43.7973 16.0885 43.7973 15.0005C43.7973 13.9125 44.3093 13.4005 45.3973 13.4005C46.4853 13.4005 46.9973 12.8885 46.9973 11.8005C46.9973 10.7125 47.5093 10.2005 48.5973 10.2005C49.6853 10.2005 50.1973 9.68854 50.1973 8.60054V5.40054C50.1973 4.31254 50.7093 3.80054 51.7973 3.80054H61.3973C62.4853 3.80054 62.9973 4.31254 62.9973 5.40054C62.9973 6.48854 62.4853 7.00054 61.3973 7.00054H58.1973C57.1093 7.00054 56.5973 7.51254 56.5973 8.60054C56.5973 9.68854 56.0853 10.2005 54.9973 10.2005C53.9093 10.2005 53.3973 10.7125 53.3973 11.8005C53.3973 12.8885 52.8853 13.4005 51.7973 13.4005C50.7093 13.4005 50.1973 13.9125 50.1973 15.0005C50.1973 16.0885 49.6853 16.6005 48.5973 16.6005C47.5093 16.6005 46.9973 17.1125 46.9973 18.2005C46.9973 19.2885 46.4853 19.8005 45.3973 19.8005C44.3093 19.8005 43.7973 20.3125 43.7973 21.4005C43.7973 22.4885 44.3093 23.0005 45.3973 23.0005H53.3973C54.4533 23.0005 54.9973 22.4885 54.9973 21.4005C54.9973 20.3125 55.5093 19.8005 56.5973 19.8005C57.6533 19.8005 58.1973 19.2885 58.1973 18.2005C58.1973 17.1125 58.7093 16.6005 59.7973 16.6005C60.8853 16.6005 61.3973 17.1125 61.3973 18.2005V24.6005C61.3973 25.6885 60.8853 26.2005 59.7973 26.2005H32.5973Z" fill="#D95781"/>
<path d="M64.5973 26.2005C63.5093 26.2005 62.9973 25.6885 62.9973 24.6005C62.9973 23.5125 63.5093 23.0005 64.5973 23.0005H67.7973C68.8853 23.0005 69.3973 22.4885 69.3973 21.4005C69.3973 20.3125 69.9093 19.8005 70.9973 19.8005C72.0853 19.8005 72.5973 19.2885 72.5973 18.2005C72.5973 17.1125 73.1093 16.6005 74.1973 16.6005C75.2853 16.6005 75.7973 16.0885 75.7973 15.0005C75.7973 13.9125 76.3093 13.4005 77.3973 13.4005C78.4853 13.4005 78.9973 12.8885 78.9973 11.8005C78.9973 10.7125 79.5093 10.2005 80.5973 10.2005C81.6853 10.2005 82.1973 9.68854 82.1973 8.60054V5.40054C82.1973 4.31254 82.7093 3.80054 83.7973 3.80054H90.1973C91.2853 3.80054 91.7973 4.31254 91.7973 5.40054C91.7973 6.48854 91.2853 7.00054 90.1973 7.00054C89.1093 7.00054 88.5973 7.51254 88.5973 8.60054V11.8005C88.5973 12.8885 89.1093 13.4005 90.1973 13.4005C91.2853 13.4005 91.7973 12.8885 91.7973 11.8005C91.7973 10.7125 92.3093 10.2005 93.3973 10.2005H96.5973C97.6853 10.2005 98.1973 9.68854 98.1973 8.60054C98.1973 7.51254 98.7093 7.00054 99.7973 7.00054H102.997C104.085 7.00054 104.597 6.48854 104.597 5.40054C104.597 4.31254 105.109 3.80054 106.197 3.80054H115.797C116.885 3.80054 117.397 4.31254 117.397 5.40054C117.397 6.48854 116.885 7.00054 115.797 7.00054H112.597C111.509 7.00054 110.997 7.51254 110.997 8.60054C110.997 9.68854 110.485 10.2005 109.397 10.2005C108.309 10.2005 107.797 10.7125 107.797 11.8005C107.797 12.8885 107.285 13.4005 106.197 13.4005C105.109 13.4005 104.597 13.9125 104.597 15.0005C104.597 16.0885 104.085 16.6005 102.997 16.6005C101.909 16.6005 101.397 17.1125 101.397 18.2005C101.397 19.2885 100.885 19.8005 99.7973 19.8005C98.7093 19.8005 98.1973 20.3125 98.1973 21.4005V24.6005C98.1973 25.6885 97.6853 26.2005 96.5973 26.2005H86.9973C85.9093 26.2005 85.3973 25.6885 85.3973 24.6005C85.3973 23.5125 85.9093 23.0005 86.9973 23.0005H90.1973C91.2853 23.0005 91.7973 22.4885 91.7973 21.4005C91.7973 20.3125 92.3093 19.8005 93.3973 19.8005C94.4853 19.8005 94.9973 19.2885 94.9973 18.2005C94.9973 17.1125 95.5093 16.6005 96.5973 16.6005C97.6853 16.6005 98.1973 16.0885 98.1973 15.0005C98.1973 13.9125 98.7093 13.4005 99.7973 13.4005C100.885 13.4005 101.397 12.8885 101.397 11.8005C101.397 10.7125 100.885 10.2005 99.7973 10.2005C98.7093 10.2005 98.1973 10.7125 98.1973 11.8005C98.1973 12.8885 97.6853 13.4005 96.5973 13.4005H93.3973C92.3093 13.4005 91.7973 13.9125 91.7973 15.0005C91.7973 16.0885 91.2853 16.6005 90.1973 16.6005H86.9973C85.9093 16.6005 85.3973 16.0885 85.3973 15.0005C85.3973 13.9125 84.8853 13.4005 83.7973 13.4005C82.7093 13.4005 82.1973 13.9125 82.1973 15.0005C82.1973 16.0885 81.6853 16.6005 80.5973 16.6005C79.5093 16.6005 78.9973 17.1125 78.9973 18.2005C78.9973 19.2885 78.4853 19.8005 77.3973 19.8005C76.3093 19.8005 75.7973 20.3125 75.7973 21.4005V24.6005C75.7973 25.6885 75.2853 26.2005 74.1973 26.2005H64.5973Z" fill="#D95781"/>
<path d="M104.604 26.2005C103.516 26.2005 103.004 25.6885 103.004 24.6005C103.004 23.5125 103.516 23.0005 104.604 23.0005C105.692 23.0005 106.204 22.4885 106.204 21.4005C106.204 20.3125 106.716 19.8005 107.804 19.8005C108.892 19.8005 109.404 19.2885 109.404 18.2005C109.404 17.1125 109.916 16.6005 111.004 16.6005C112.092 16.6005 112.604 17.1125 112.604 18.2005V21.4005C112.604 22.4885 113.116 23.0005 114.204 23.0005H117.404C118.492 23.0005 119.004 22.4885 119.004 21.4005V8.60054C119.004 7.51254 119.516 7.00054 120.604 7.00054C121.692 7.00054 122.204 6.48854 122.204 5.40054C122.204 4.31254 122.716 3.80054 123.804 3.80054H138.844C139.932 3.80054 140.444 4.31254 140.444 5.40054C140.444 6.48854 139.932 7.00054 138.844 7.00054C137.756 7.00054 137.244 7.51254 137.244 8.60054C137.244 9.68854 136.732 10.2005 135.644 10.2005C134.556 10.2005 134.044 10.7125 134.044 11.8005C134.044 12.8885 133.532 13.4005 132.444 13.4005C131.356 13.4005 130.844 12.8885 130.844 11.8005V8.60054C130.844 7.51254 130.332 7.00054 129.244 7.00054H126.044C124.956 7.00054 124.444 7.51254 124.444 8.60054V21.4005C124.444 22.4885 123.932 23.0005 122.844 23.0005C121.756 23.0005 121.244 23.5125 121.244 24.6005C121.244 25.6885 120.732 26.2005 119.644 26.2005H104.604Z" fill="#D95781"/>
</svg>
