<svg width="158" height="21" viewBox="0 0 158 21" fill="none" xmlns="http://www.w3.org/2000/svg">
<path d="M3.36 3.77992V0.419922H13.44V3.77992H3.36ZM0 17.2199V3.77992H3.36V17.2199H0ZM13.44 7.13992V3.77992H16.8V7.13992H13.44ZM13.44 17.2199V13.8599H16.8V17.2199H13.44ZM3.36 20.5799V17.2199H13.44V20.5799H3.36Z" fill="#2B2B2B"/>
<path d="M20.1523 3.77992V0.419922H36.9523V3.77992H30.2323V20.5799H26.8723V3.77992H20.1523Z" fill="#2B2B2B"/>
<path d="M40.3047 20.5799V0.419922H57.1047V3.77992H43.6647V7.13992H53.7447V10.4999H43.6647V17.2199H57.1047V20.5799H40.3047Z" fill="#2B2B2B"/>
<path d="M70.537 7.13992V10.4999H63.817V20.5799H60.457V0.419922H63.817V7.13992H70.537ZM77.257 0.419922V3.77992H73.897V0.419922H77.257ZM73.897 3.77992V7.13992H70.537V3.77992H73.897ZM73.897 13.8599H70.537V10.4999H73.897V13.8599ZM73.897 20.5799V13.8599H77.257V20.5799H73.897Z" fill="#2B2B2B"/>
<path d="M80.6094 20.5799V17.2199H97.4094V20.5799H80.6094Z" fill="#2B2B2B"/>
<path d="M117.562 0.419922V20.5799H114.202V3.77992H104.122V20.5799H100.762V0.419922H117.562Z" fill="#2B2B2B"/>
<path d="M120.914 20.5799V0.419922H134.354V3.77992H124.274V13.8599H134.354V17.2199H124.274V20.5799H120.914ZM134.354 13.8599V3.77992H137.714V13.8599H134.354Z" fill="#2B2B2B"/>
<path d="M144.426 3.77992V0.419922H154.506V3.77992H144.426ZM141.066 17.2199V3.77992H144.426V17.2199H141.066ZM154.506 17.2199V3.77992H157.866V17.2199H154.506ZM144.426 20.5799V17.2199H154.506V20.5799H144.426Z" fill="#2B2B2B"/>
</svg>
